<?xml version="1.0" standalone="no"?>
<!DOCTYPE svg PUBLIC "-//W3C//DTD SVG 20010904//EN"
 "http://www.w3.org/TR/2001/REC-SVG-20010904/DTD/svg10.dtd">
<svg version="1.0" xmlns="http://www.w3.org/2000/svg"
 width="576.000000pt" height="576.000000pt" viewBox="0 0 576.000000 576.000000"
 preserveAspectRatio="xMidYMid meet">
<metadata>
Created by potrace 1.11, written by Peter Selinger 2001-2013
</metadata>
<g transform="translate(0.000000,576.000000) scale(0.100000,-0.100000)"
fill="#000000" stroke="none">
<path d="M2170 5079 c0 -7 -40 -10 -122 -8 -69 1 -123 -2 -123 -7 0 -5 36 -8
80 -7 l80 3 -55 -16 c-95 -26 -196 -98 -268 -191 -18 -23 -38 -41 -45 -39 -7
1 -9 1 -4 -1 4 -3 7 -12 7 -21 0 -14 -2 -14 -9 -3 -7 10 -10 8 -15 -10 -25
-90 -29 -99 -53 -99 -12 0 -23 -5 -23 -11 0 -7 -47 -10 -142 -8 -83 1 -143 -2
-145 -7 -2 -6 36 -9 94 -7 l98 3 -62 -23 c-153 -59 -276 -180 -329 -325 -10
-26 -22 -51 -27 -57 -7 -7 -7 -5 -2 5 7 12 6 13 -6 2 -12 -11 -12 -14 0 -21 9
-6 10 -14 5 -22 -5 -8 -9 -27 -9 -44 0 -16 -5 -29 -11 -28 -9 2 -12 -45 -4
-54 1 -2 3 -7 4 -12 0 -5 3 -12 7 -15 3 -3 3 -21 1 -39 -3 -28 -10 -37 -42
-51 -94 -41 -161 -66 -180 -66 -11 0 -20 -7 -20 -15 0 -19 -2 -19 48 5 23 11
55 25 70 30 23 8 24 8 8 -3 -27 -17 -156 -145 -156 -154 0 -5 -11 -21 -25 -36
-14 -15 -23 -27 -20 -27 3 0 -1 -12 -9 -27 -26 -45 -56 -123 -56 -143 0 -10
-5 -22 -12 -26 -7 -5 -8 -3 -3 6 5 7 4 11 -1 8 -5 -4 -8 -34 -8 -68 1 -40 -3
-63 -10 -66 -14 -6 -14 -42 0 -52 14 -11 17 -61 4 -77 -8 -10 -7 -15 5 -22 20
-11 38 -70 22 -76 -6 -2 -2 -15 12 -33 41 -56 20 -86 -106 -145 -68 -32 -83
-47 -55 -57 7 -2 12 2 12 10 0 11 24 27 70 46 8 3 0 -7 -18 -22 -70 -60 -168
-225 -187 -316 -4 -19 -11 -39 -15 -45 -5 -5 -7 -30 -6 -53 2 -29 -2 -46 -11
-49 -17 -7 -17 -49 0 -56 8 -3 12 -21 11 -51 -1 -32 2 -44 10 -39 6 3 8 3 4
-1 -15 -17 53 -192 105 -269 35 -52 77 -97 147 -157 l25 -21 -25 7 c-14 3 -29
10 -35 15 -12 12 -28 12 -21 0 10 -15 98 -42 91 -28 -4 7 -1 5 7 -4 13 -15 47
-33 59 -31 4 1 15 -8 24 -18 10 -11 15 -20 12 -20 -4 0 -2 -11 3 -24 6 -16 5
-26 -1 -28 -14 -5 -20 -71 -7 -79 5 -4 11 -30 11 -58 1 -28 5 -51 9 -51 3 0
10 -15 13 -33 4 -17 11 -36 14 -42 4 -5 14 -26 21 -45 37 -96 143 -216 240
-274 64 -37 155 -76 180 -76 9 0 20 -3 24 -7 4 -5 26 -9 48 -10 23 -1 44 -6
47 -12 4 -5 20 -8 36 -5 91 14 94 14 111 -38 8 -26 20 -48 24 -48 5 0 7 -7 4
-15 -4 -8 0 -32 9 -53 8 -20 12 -42 10 -49 -5 -14 13 -26 28 -18 7 5 6 12 -4
23 -15 18 -40 83 -33 89 2 2 11 -9 21 -24 10 -15 47 -56 82 -89 68 -66 210
-146 263 -148 33 -1 27 -12 -10 -19 -14 -2 10 -3 53 -2 59 2 80 -1 84 -11 7
-18 41 -18 58 0 8 8 30 12 54 11 23 -1 41 1 41 5 0 4 16 11 36 15 190 35 401
248 441 442 l7 38 7 -35 c4 -23 6 -8 6 44 0 52 4 81 11 84 14 4 16 52 2 52
-11 0 -11 -13 -11 993 0 395 3 722 6 727 4 6 2 10 -3 10 -5 0 -6 17 -2 40 4
22 5 40 1 40 -3 0 -5 51 -4 113 1 61 2 195 2 297 0 849 1 935 11 938 13 5 13
49 -1 54 -9 3 -14 212 -6 268 1 8 -2 16 -7 17 -6 2 -9 -37 -8 -95 l2 -97 -19
50 c-32 87 -38 99 -86 163 -72 95 -164 162 -272 197 l-48 15 98 -3 c63 -2 97
1 97 8 0 6 -49 9 -145 7 -100 -3 -145 -1 -145 7 0 6 -11 11 -25 11 -14 0 -25
-5 -25 -11z"/>
<path d="M3540 5079 c0 -7 -48 -10 -147 -8 -82 1 -148 -2 -148 -7 0 -4 45 -7
100 -6 l100 2 -67 -24 c-120 -44 -238 -141 -291 -241 -12 -22 -32 -67 -44
-100 l-21 -60 -1 88 c-1 58 3 87 10 87 8 0 7 5 -1 15 -7 9 -15 13 -18 10 -3
-2 -4 -70 -3 -150 2 -97 -1 -145 -8 -145 -14 0 -14 -47 0 -52 7 -2 10 -125 9
-383 -1 -209 -1 -384 -1 -390 0 -5 0 -543 1 -1195 1 -822 -2 -1186 -9 -1188
-14 -5 -14 -52 0 -52 7 0 9 -53 7 -165 -2 -123 0 -165 9 -165 16 0 26 17 13
25 -6 4 -10 50 -9 113 1 74 4 96 9 72 12 -59 36 -118 71 -177 39 -64 148 -177
193 -200 17 -8 37 -20 45 -26 15 -13 67 -33 124 -49 20 -6 37 -15 37 -20 0 -6
7 -5 15 2 11 9 15 9 15 1 0 -8 11 -10 30 -7 18 2 36 -1 44 -10 18 -18 56 -18
56 -1 0 9 13 13 43 12 23 -1 49 2 57 6 8 4 41 15 72 25 31 9 65 24 75 33 10 9
25 17 33 19 40 9 184 146 215 205 15 30 16 17 0 -28 -3 -11 1 -8 9 7 9 15 18
35 20 45 10 50 29 82 52 87 14 4 30 4 36 0 19 -12 62 -13 69 -2 4 5 25 11 48
11 22 1 41 6 41 11 0 6 5 4 10 -4 5 -8 10 -10 10 -4 0 6 26 18 58 28 31 10 76
29 100 42 23 14 42 22 42 19 0 -12 122 106 157 151 14 19 30 31 36 27 6 -3 7
-1 3 5 -4 6 6 35 22 64 15 30 34 75 42 102 9 32 16 43 21 34 6 -9 9 -9 9 -1 0
6 -5 15 -10 18 -6 4 -7 12 -3 18 4 7 9 28 10 47 1 19 7 36 13 38 13 5 13 39 0
47 -5 3 -7 12 -3 20 3 8 0 15 -7 15 -9 0 -9 4 -3 13 6 6 9 22 8 34 -1 21 22
36 88 57 9 3 17 11 17 19 0 7 13 20 28 29 50 30 162 160 189 221 9 20 21 37
26 37 4 0 5 5 2 10 -4 6 -2 16 3 23 6 7 16 34 23 60 8 33 14 44 20 35 5 -7 9
-8 9 -2 0 5 -6 16 -12 23 -7 8 -8 11 -2 8 6 -4 10 12 10 46 1 29 6 53 12 55
16 5 15 40 -2 57 -9 9 -12 28 -9 56 3 25 1 39 -4 36 -5 -4 -10 0 -10 8 0 8 3
12 7 10 3 -2 7 6 7 18 2 17 0 19 -7 7 -5 -8 -10 -12 -11 -7 -1 4 -2 10 -4 15
-1 4 -5 21 -10 37 -10 38 -74 162 -100 195 -11 13 -35 40 -52 58 -18 19 -31
38 -28 42 3 5 0 12 -6 16 -8 5 -10 2 -5 -7 4 -8 -1 -4 -10 9 -9 12 -22 22 -28
22 -18 1 -53 34 -60 58 -5 15 -1 31 12 50 13 18 18 37 15 58 -4 25 1 37 24 58
15 15 21 26 13 24 -11 -2 -15 7 -16 35 0 22 4 37 11 37 17 0 15 32 -3 53 -8 9
-13 20 -10 23 4 3 2 19 -2 35 -5 16 -5 29 0 29 5 0 3 12 -4 28 -8 15 -20 45
-26 67 -17 53 -52 129 -62 133 -4 2 -8 8 -8 14 0 5 -20 35 -45 66 -38 49 -71
81 -144 140 -9 7 9 3 39 -9 30 -11 58 -25 61 -31 4 -6 12 -7 18 -4 18 11 13
26 -10 26 -11 0 -64 18 -118 41 -96 39 -99 42 -105 77 -3 22 0 44 7 57 16 25
16 61 0 58 -7 -2 -11 14 -10 46 1 27 -2 47 -6 44 -5 -3 -7 1 -6 8 4 26 -66
171 -105 217 -80 94 -155 145 -281 191 -25 9 -14 10 64 9 53 -1 96 2 98 7 2 6
-52 9 -142 7 -100 -3 -145 -1 -145 7 0 6 -11 11 -23 11 -19 0 -27 8 -36 38 -7
20 -14 48 -15 62 -2 14 -7 33 -11 42 -4 10 -8 30 -8 45 -2 29 -15 45 -30 36
-4 -2 -4 -10 1 -16 9 -11 42 -112 42 -126 0 -3 -14 17 -30 46 -57 99 -171 192
-286 233 l-59 20 75 -2 c47 -2 73 1 70 7 -3 6 -12 9 -20 8 -51 -8 -215 -3
-218 6 -5 14 -52 14 -52 0z"/>
<path d="M1719 4902 c0 -4 -2 -22 -5 -41 -5 -39 -3 -39 18 6 13 27 14 33 2 37
-8 3 -14 2 -15 -2z"/>
<path d="M1091 4416 c-10 -12 -6 -26 10 -26 11 0 19 29 10 35 -5 2 -14 -1 -20
-9z"/>
<path d="M4647 4416 c-7 -19 11 -32 24 -19 6 6 5 14 -4 22 -12 9 -16 8 -20 -3z"/>
<path d="M1102 4360 c0 -14 2 -19 5 -12 2 6 2 18 0 25 -3 6 -5 1 -5 -13z"/>
<path d="M4650 4365 c0 -8 2 -15 4 -15 2 0 6 7 10 15 3 8 1 15 -4 15 -6 0 -10
-7 -10 -15z"/>
<path d="M4651 4328 c-1 -20 14 -24 25 -6 4 6 3 8 -4 4 -5 -3 -13 0 -15 6 -3
8 -6 6 -6 -4z"/>
<path d="M1096 4302 c-2 -4 -1 -14 4 -22 7 -11 9 -9 7 8 -1 24 -3 26 -11 14z"/>
<path d="M4653 4281 c0 -11 5 -18 9 -15 4 3 5 11 1 19 -7 21 -12 19 -10 -4z"/>
<path d="M674 3648 c-4 -5 -1 -14 7 -18 10 -7 10 -12 -2 -26 -8 -10 -9 -15 -2
-11 6 4 13 1 16 -5 3 -7 5 -4 5 7 -1 11 2 27 6 36 8 19 -19 35 -30 17z"/>
<path d="M5054 3649 c-8 -14 11 -33 25 -25 11 7 4 36 -9 36 -5 0 -12 -5 -16
-11z"/>
<path d="M5062 3580 c-1 -16 1 -31 5 -33 8 -5 10 50 2 58 -3 2 -6 -9 -7 -25z"/>
<path d="M5060 3521 c0 -6 4 -13 10 -16 6 -3 7 1 4 9 -7 18 -14 21 -14 7z"/>
<path d="M5154 2962 c4 -7 14 -12 22 -12 8 0 14 -7 14 -16 0 -9 5 -14 12 -12
19 7 20 25 1 31 -10 2 -27 8 -37 13 -14 5 -17 4 -12 -4z"/>
<path d="M407 2732 c-3 -4 -3 -20 1 -37 4 -26 6 -27 13 -10 11 28 11 55 0 55
-6 0 -12 -3 -14 -8z"/>
<path d="M5332 2733 c-6 -3 -9 -10 -5 -16 4 -7 9 -23 11 -37 2 -13 6 -27 9
-30 3 -3 4 6 2 20 -2 14 0 31 5 38 10 16 -4 31 -22 25z"/>
<path d="M411 2614 c0 -11 3 -14 6 -6 3 7 2 16 -1 19 -3 4 -6 -2 -5 -13z"/>
<path d="M412 2248 c-1 -35 -6 -58 -13 -58 -8 0 -7 -5 1 -15 21 -25 27 -5 20
65 l-7 65 -1 -57z"/>
<path d="M5343 2255 c0 -22 2 -30 4 -17 2 12 2 30 0 40 -3 9 -5 -1 -4 -23z"/>
<path d="M5332 2194 c-11 -12 -10 -15 3 -20 21 -8 29 1 18 19 -7 13 -10 13
-21 1z"/>
<path d="M5154 1947 c-3 -8 -26 -23 -50 -32 -25 -9 -43 -19 -41 -21 2 -3 24 4
48 14 24 10 50 17 57 15 14 -5 16 23 2 32 -6 3 -13 0 -16 -8z"/>
<path d="M577 1944 c-9 -10 2 -24 19 -24 8 0 14 7 14 15 0 15 -21 21 -33 9z"/>
<path d="M580 1846 c0 -2 8 -10 18 -17 15 -13 16 -12 3 4 -13 16 -21 21 -21
13z"/>
<path d="M190 1599 c0 -5 5 -7 10 -4 6 3 10 8 10 11 0 2 -4 4 -10 4 -5 0 -10
-5 -10 -11z"/>
<path d="M823 1530 c0 -25 2 -35 4 -22 2 12 2 32 0 45 -2 12 -4 2 -4 -23z"/>
<path d="M4928 1510 c-2 -22 0 -40 4 -40 5 0 8 18 8 40 0 22 -2 40 -4 40 -2 0
-6 -18 -8 -40z"/>
<path d="M822 1455 c0 -16 2 -22 5 -12 2 9 2 23 0 30 -3 6 -5 -1 -5 -18z"/>
<path d="M4928 1426 c2 -18 -1 -37 -7 -40 -14 -9 -2 -36 14 -30 13 5 10 81 -4
96 -4 5 -5 -7 -3 -26z"/>
<path d="M816 1384 c-9 -22 -8 -24 9 -24 8 0 15 6 15 14 0 22 -17 28 -24 10z"/>
<path d="M4641 1107 c-9 -12 -8 -16 3 -20 19 -7 32 11 19 24 -6 6 -14 5 -22
-4z"/>
<path d="M1090 1094 c0 -17 22 -14 28 4 2 7 -3 12 -12 12 -9 0 -16 -7 -16 -16z"/>
<path d="M1136 1102 c-3 -4 4 -9 15 -9 23 -2 25 3 4 10 -8 4 -16 3 -19 -1z"/>
<path d="M1188 1098 c5 -5 16 -8 23 -6 8 3 3 7 -10 11 -17 4 -21 3 -13 -5z"/>
<path d="M2742 1090 c0 -14 2 -19 5 -12 2 6 2 18 0 25 -3 6 -5 1 -5 -13z"/>
<path d="M4530 1099 c0 -5 9 -9 20 -9 11 0 20 2 20 4 0 2 -9 6 -20 9 -11 3
-20 1 -20 -4z"/>
<path d="M4580 1099 c0 -5 10 -9 22 -9 12 0 18 3 14 7 -10 11 -36 12 -36 2z"/>
<path d="M1263 1093 c9 -2 23 -2 30 0 6 3 -1 5 -18 5 -16 0 -22 -2 -12 -5z"/>
<path d="M4478 1093 c7 -3 16 -2 19 1 4 3 -2 6 -13 5 -11 0 -14 -3 -6 -6z"/>
<path d="M2741 1030 c-1 -19 -4 -45 -7 -57 -5 -16 -2 -23 9 -23 11 0 14 10 10
48 -6 62 -11 75 -12 32z"/>
<path d="M4140 906 c0 -7 -7 -19 -15 -26 -16 -13 -10 -33 7 -28 11 4 23 68 13
68 -3 0 -5 -6 -5 -14z"/>
<path d="M1845 700 c-10 -16 7 -31 23 -21 10 6 10 10 -2 20 -10 9 -16 9 -21 1z"/>
<path d="M3276 695 c-6 -17 9 -29 24 -20 14 9 12 22 -4 28 -8 3 -17 -1 -20 -8z"/>
<path d="M3891 697 c-9 -12 -8 -16 3 -20 19 -7 32 11 19 24 -6 6 -14 5 -22 -4z"/>
<path d="M2308 688 c5 -5 16 -8 23 -6 8 3 3 7 -10 11 -17 4 -21 3 -13 -5z"/>
<path d="M2435 690 c-16 -7 -17 -9 -3 -9 9 -1 23 -4 32 -7 11 -4 16 -1 16 10
0 17 -14 19 -45 6z"/>
<path d="M3355 690 c-3 -5 -1 -10 4 -10 6 0 11 5 11 10 0 6 -2 10 -4 10 -3 0
-8 -4 -11 -10z"/>
<path d="M2268 683 c7 -3 16 -2 19 1 4 3 -2 6 -13 5 -11 0 -14 -3 -6 -6z"/>
<path d="M2358 683 c7 -3 16 -2 19 1 4 3 -2 6 -13 5 -11 0 -14 -3 -6 -6z"/>
<path d="M3388 683 c7 -3 16 -2 19 1 4 3 -2 6 -13 5 -11 0 -14 -3 -6 -6z"/>
<path d="M3428 683 c7 -3 16 -2 19 1 4 3 -2 6 -13 5 -11 0 -14 -3 -6 -6z"/>
<path d="M3468 683 c7 -3 16 -2 19 1 4 3 -2 6 -13 5 -11 0 -14 -3 -6 -6z"/>
</g>
</svg>
